<?xml version="1.0" standalone="no"?>
<!DOCTYPE svg PUBLIC "-//W3C//DTD SVG 20010904//EN"
 "http://www.w3.org/TR/2001/REC-SVG-20010904/DTD/svg10.dtd">
<svg version="1.0" xmlns="http://www.w3.org/2000/svg"
 width="1536.000000pt" height="1536.000000pt" viewBox="0 0 1536.000000 1536.000000"
 preserveAspectRatio="xMidYMid meet">
<metadata>
Created by potrace 1.16, written by Peter Selinger 2001-2019
</metadata>
<g transform="translate(0.000000,1536.000000) scale(0.100000,-0.100000)"
fill="#000000" stroke="none">
<path d="M2100 13801 c-30 -4 -64 -12 -75 -18 -11 -6 -58 -30 -105 -52 -53
-25 -106 -60 -141 -93 -55 -52 -120 -129 -133 -158 -3 -8 -17 -35 -31 -59 -14
-24 -25 -50 -25 -58 0 -8 -6 -24 -14 -36 -7 -12 -18 -56 -22 -97 -12 -98 -12
-11002 0 -11100 4 -41 15 -85 22 -97 8 -12 14 -28 14 -36 0 -8 11 -34 25 -58
13 -24 29 -53 34 -64 8 -18 82 -108 113 -138 43 -42 112 -88 173 -116 39 -18
84 -40 100 -49 28 -16 435 -17 5645 -17 5226 0 5617 1 5645 17 17 9 64 32 105
52 64 30 144 87 193 138 36 37 102 130 113 158 3 8 12 29 19 45 36 80 43 105
51 170 12 92 12 11010 0 11095 -5 36 -15 81 -23 100 -25 61 -45 104 -54 120
-5 8 -12 22 -16 30 -12 29 -76 105 -132 158 -35 33 -88 68 -141 93 -47 22 -98
48 -115 57 -28 16 -411 17 -5600 18 -3063 1 -5595 -2 -5625 -5z m5309 -1586
c36 -12 66 -15 96 -11 29 5 55 2 80 -9 21 -8 51 -15 68 -15 43 0 148 -20 172
-33 11 -6 38 -14 60 -18 49 -10 161 -42 195 -56 14 -6 41 -16 60 -23 81 -29
101 -37 112 -48 7 -7 17 -12 24 -12 13 0 208 -101 264 -136 151 -97 437 -346
508 -444 14 -19 42 -53 63 -75 20 -22 60 -76 89 -120 29 -44 61 -93 72 -108
31 -44 115 -193 122 -215 4 -11 22 -51 40 -89 95 -196 186 -508 186 -637 0
-20 5 -47 12 -59 15 -28 19 -600 4 -637 -5 -14 -13 -56 -18 -95 -29 -250 -78
-402 -229 -710 -70 -143 -212 -350 -298 -435 -26 -25 -69 -70 -98 -100 -102
-109 -189 -186 -335 -295 -98 -72 -318 -197 -487 -275 -8 -3 -19 -14 -25 -22
-10 -17 -8 -24 37 -103 13 -22 43 -76 67 -120 23 -44 67 -120 95 -170 29 -49
77 -137 107 -195 30 -58 66 -123 80 -145 25 -40 86 -152 129 -235 20 -39 113
-207 139 -250 5 -8 18 -33 28 -56 11 -22 47 -88 81 -147 33 -58 61 -108 61
-111 0 -3 15 -31 34 -63 18 -32 45 -78 58 -103 14 -25 35 -63 48 -85 12 -22
51 -92 85 -155 34 -63 72 -133 85 -155 13 -22 44 -81 70 -130 26 -50 61 -113
77 -140 15 -28 39 -75 53 -105 13 -30 28 -61 33 -67 17 -23 47 -14 65 18 9 17
37 59 62 92 25 33 55 74 67 90 39 53 166 180 233 233 134 105 318 209 410 234
25 6 59 17 75 24 112 47 260 73 469 82 74 4 135 1 160 -5 23 -7 68 -13 101
-15 74 -5 187 -26 200 -37 5 -5 19 -9 30 -9 30 0 155 -45 252 -90 83 -39 190
-106 298 -189 140 -106 313 -326 409 -518 72 -144 139 -357 155 -488 4 -33 12
-70 19 -82 8 -14 11 -60 9 -135 -2 -113 -2 -113 -2310 -113 -1504 0 -2311 3
-2315 10 -3 5 -8 345 -9 755 -3 613 -6 755 -18 801 -8 31 -15 79 -15 106 0 27
-3 53 -7 57 -4 4 -15 49 -24 99 -24 133 -70 250 -169 432 -54 101 -82 143
-156 233 -87 108 -338 341 -366 342 -3 0 -37 21 -75 46 -135 91 -377 185 -553
216 -88 15 -446 22 -490 9 -19 -5 -65 -14 -102 -20 -71 -12 -153 -35 -205 -57
-17 -8 -34 -14 -38 -14 -4 0 -21 -6 -38 -14 -18 -8 -58 -25 -89 -39 -32 -14
-81 -41 -110 -60 -29 -19 -91 -59 -138 -89 -91 -60 -276 -234 -353 -333 -95
-124 -199 -316 -249 -460 -12 -33 -27 -75 -34 -93 -8 -18 -14 -42 -14 -54 0
-12 -6 -44 -14 -72 -21 -74 -36 -177 -29 -207 2 -15 -2 -76 -11 -137 -14 -93
-16 -213 -16 -776 1 -367 -2 -670 -5 -675 -2 -5 -285 -9 -628 -10 -684 -1
-671 -2 -767 61 -63 41 -117 119 -143 207 -19 65 -20 130 -23 3968 -3 3902 -3
3902 99 3905 56 2 1034 3 2172 2 1945 -1 2074 -2 2124 -19z m3772 -3989 c18
-9 44 -16 58 -16 15 0 35 -6 46 -14 11 -7 37 -19 57 -25 106 -35 240 -122 338
-221 132 -131 187 -218 254 -400 3 -8 10 -22 15 -30 27 -43 51 -204 51 -335 0
-166 -16 -245 -78 -395 -34 -81 -107 -219 -122 -230 -3 -3 -26 -30 -49 -60
-46 -60 -132 -138 -196 -178 -22 -14 -62 -40 -90 -58 -96 -61 -255 -110 -405
-125 -93 -10 -285 -3 -340 11 -19 5 -64 16 -100 26 -211 54 -473 257 -587 454
-99 172 -130 268 -144 435 -25 311 36 529 217 770 120 161 314 299 504 360 30
10 66 22 80 28 70 30 432 32 491 3z"/>
<path d="M3062 12178 c6 -18 28 -21 28 -4 0 9 -7 16 -16 16 -9 0 -14 -5 -12
-12z"/>
<path d="M3160 12180 c19 -13 30 -13 30 0 0 6 -10 10 -22 10 -19 0 -20 -2 -8
-10z"/>
<path d="M3415 12180 c4 -6 11 -8 16 -5 14 9 11 15 -7 15 -8 0 -12 -5 -9 -10z"/>
<path d="M3855 12180 c3 -5 8 -10 11 -10 2 0 4 5 4 10 0 6 -5 10 -11 10 -5 0
-7 -4 -4 -10z"/>
<path d="M4133 12183 c9 -2 25 -2 35 0 9 3 1 5 -18 5 -19 0 -27 -2 -17 -5z"/>
<path d="M4438 12183 c6 -2 18 -2 25 0 6 3 1 5 -13 5 -14 0 -19 -2 -12 -5z"/>
<path d="M5108 12183 c6 -2 18 -2 25 0 6 3 1 5 -13 5 -14 0 -19 -2 -12 -5z"/>
<path d="M5408 12183 c7 -3 16 -2 19 1 4 3 -2 6 -13 5 -11 0 -14 -3 -6 -6z"/>
<path d="M5470 12180 c-18 -12 -2 -12 25 0 13 6 15 9 5 9 -8 0 -22 -4 -30 -9z"/>
<path d="M5773 12183 c9 -2 23 -2 30 0 6 3 -1 5 -18 5 -16 0 -22 -2 -12 -5z"/>
<path d="M6230 12186 c0 -2 9 -6 20 -9 11 -3 18 -1 14 4 -5 9 -34 13 -34 5z"/>
<path d="M6520 12180 c-18 -12 -2 -12 25 0 13 6 15 9 5 9 -8 0 -22 -4 -30 -9z"/>
<path d="M6678 12183 c7 -3 16 -2 19 1 4 3 -2 6 -13 5 -11 0 -14 -3 -6 -6z"/>
<path d="M3233 12173 c9 -2 23 -2 30 0 6 3 -1 5 -18 5 -16 0 -22 -2 -12 -5z"/>
<path d="M3733 12173 c9 -2 25 -2 35 0 9 3 1 5 -18 5 -19 0 -27 -2 -17 -5z"/>
<path d="M5998 12173 c6 -2 18 -2 25 0 6 3 1 5 -13 5 -14 0 -19 -2 -12 -5z"/>
<path d="M6428 12173 c12 -2 30 -2 40 0 9 3 -1 5 -23 4 -22 0 -30 -2 -17 -4z"/>
<path d="M7153 12173 c9 -2 25 -2 35 0 9 3 1 5 -18 5 -19 0 -27 -2 -17 -5z"/>
<path d="M7870 12070 c0 -5 4 -10 9 -10 6 0 13 5 16 10 3 6 -1 10 -9 10 -9 0
-16 -4 -16 -10z"/>
<path d="M8002 12035 c10 -11 48 -14 48 -4 0 5 -12 9 -27 9 -14 0 -24 -2 -21
-5z"/>
<path d="M8084 12003 c11 -11 46 -14 46 -3 0 6 -12 10 -27 10 -14 0 -23 -3
-19 -7z"/>
<path d="M8468 11823 c7 -3 16 -2 19 1 4 3 -2 6 -13 5 -11 0 -14 -3 -6 -6z"/>
<path d="M3070 11771 c0 -5 5 -13 10 -16 6 -3 10 -2 10 4 0 5 -4 13 -10 16 -5
3 -10 2 -10 -4z"/>
<path d="M3075 11671 c-3 -5 -2 -12 3 -15 5 -3 9 1 9 9 0 17 -3 19 -12 6z"/>
<path d="M8720 11640 c0 -5 5 -10 10 -10 6 0 10 5 10 10 0 6 -4 10 -10 10 -5
0 -10 -4 -10 -10z"/>
<path d="M3075 11447 c-4 -10 -5 -21 -1 -24 10 -10 18 4 13 24 -4 17 -4 17
-12 0z"/>
<path d="M9110 11250 c0 -5 5 -10 11 -10 5 0 7 5 4 10 -3 6 -8 10 -11 10 -2 0
-4 -4 -4 -10z"/>
<path d="M9150 11185 c0 -8 4 -15 10 -15 5 0 7 7 4 15 -4 8 -8 15 -10 15 -2 0
-4 -7 -4 -15z"/>
<path d="M3078 11140 c-10 -23 -6 -52 5 -41 5 5 7 19 5 32 -3 17 -6 20 -10 9z"/>
<path d="M9320 10895 c0 -8 5 -15 10 -15 6 0 10 7 10 15 0 8 -4 15 -10 15 -5
0 -10 -7 -10 -15z"/>
<path d="M9360 10814 c0 -8 5 -12 10 -9 6 4 8 11 5 16 -9 14 -15 11 -15 -7z"/>
<path d="M6128 10733 c7 -3 16 -2 19 1 4 3 -2 6 -13 5 -11 0 -14 -3 -6 -6z"/>
<path d="M6188 10733 c6 -2 18 -2 25 0 6 3 1 5 -13 5 -14 0 -19 -2 -12 -5z"/>
<path d="M6248 10723 c6 -2 18 -2 25 0 6 3 1 5 -13 5 -14 0 -19 -2 -12 -5z"/>
<path d="M5950 10700 c20 -13 60 -13 60 0 0 6 -17 10 -37 10 -28 0 -34 -3 -23
-10z"/>
<path d="M6424 10702 c6 -10 72 -9 82 1 4 4 -14 7 -40 7 -26 0 -45 -4 -42 -8z"/>
<path d="M6047 10653 c-4 -4 -31 -10 -60 -14 -97 -13 -222 -56 -345 -117 -127
-63 -161 -84 -224 -136 -20 -17 -62 -51 -93 -75 -31 -25 -81 -76 -111 -115
-30 -39 -75 -96 -99 -126 -48 -60 -162 -280 -194 -375 -11 -33 -25 -90 -30
-127 -5 -37 -13 -73 -17 -80 -5 -7 -9 -94 -10 -193 -2 -136 1 -188 12 -213 8
-19 14 -49 14 -67 0 -59 86 -286 150 -395 14 -25 29 -52 32 -61 27 -72 290
-346 395 -411 179 -112 280 -158 463 -208 155 -42 494 -45 600 -6 19 8 67 21
105 30 108 27 330 139 425 215 89 72 222 207 286 291 65 85 132 211 180 337
14 37 32 83 40 101 8 18 14 43 14 55 0 12 7 45 16 72 23 71 23 420 0 484 -9
24 -16 54 -16 67 0 13 -6 38 -14 56 -7 18 -19 51 -26 73 -17 54 -133 287 -167
335 -70 97 -175 218 -213 245 -23 17 -67 51 -98 78 -73 63 -162 114 -317 182
-83 37 -136 55 -162 55 -16 0 -34 5 -40 11 -6 6 -40 16 -74 21 -78 13 -412 22
-422 11z"/>
<path d="M6876 10562 c-3 -6 -1 -14 5 -17 15 -10 25 3 12 16 -7 7 -13 7 -17 1z"/>
<path d="M5568 10553 c6 -2 18 -2 25 0 6 3 1 5 -13 5 -14 0 -19 -2 -12 -5z"/>
<path d="M9470 10545 c0 -8 5 -15 10 -15 6 0 10 7 10 15 0 8 -4 15 -10 15 -5
0 -10 -7 -10 -15z"/>
<path d="M9510 10445 c-1 -5 -2 -13 -2 -16 1 -4 2 -23 4 -43 1 -23 6 -32 12
-26 6 6 5 25 -1 52 -6 24 -12 39 -13 33z"/>
<path d="M9543 10285 c0 -22 2 -30 4 -17 2 12 2 30 0 40 -3 9 -5 -1 -4 -23z"/>
<path d="M7310 10206 c0 -9 5 -16 10 -16 6 0 10 4 10 9 0 6 -4 13 -10 16 -5 3
-10 -1 -10 -9z"/>
<path d="M9581 10044 c0 -11 3 -14 6 -6 3 7 2 16 -1 19 -3 4 -6 -2 -5 -13z"/>
<path d="M5011 10024 c0 -11 3 -14 6 -6 3 7 2 16 -1 19 -3 4 -6 -2 -5 -13z"/>
<path d="M7460 10001 c0 -12 5 -21 10 -21 6 0 10 6 10 14 0 8 -4 18 -10 21 -5
3 -10 -3 -10 -14z"/>
<path d="M9570 9961 c0 -17 4 -32 8 -35 4 -2 6 11 4 30 -5 42 -12 45 -12 5z"/>
<path d="M4970 9960 c0 -5 5 -10 10 -10 6 0 10 5 10 10 0 6 -4 10 -10 10 -5 0
-10 -4 -10 -10z"/>
<path d="M7491 9954 c0 -11 3 -14 6 -6 3 7 2 16 -1 19 -3 4 -6 -2 -5 -13z"/>
<path d="M9570 9666 c0 -8 5 -18 10 -21 6 -3 10 3 10 14 0 12 -4 21 -10 21 -5
0 -10 -6 -10 -14z"/>
<path d="M4831 9604 c0 -11 3 -14 6 -6 3 7 2 16 -1 19 -3 4 -6 -2 -5 -13z"/>
<path d="M7637 9583 c-3 -16 -1 -32 4 -37 5 -6 9 4 9 27 0 44 -6 48 -13 10z"/>
<path d="M9573 9543 c-1 -36 0 -64 2 -61 8 7 13 118 6 122 -3 2 -7 -25 -8 -61z"/>
<path d="M4798 9460 c-8 -31 -2 -349 6 -357 3 -4 6 7 6 23 0 16 3 81 6 144 5
121 -6 238 -18 190z"/>
<path d="M7667 9382 c-3 -27 -3 -93 0 -148 5 -78 8 -93 15 -69 7 26 2 254 -6
262 -2 2 -6 -18 -9 -45z"/>
<path d="M9542 9300 c0 -19 2 -27 5 -17 2 9 2 25 0 35 -3 9 -5 1 -5 -18z"/>
<path d="M9512 9178 c-14 -14 -16 -54 -3 -63 6 -3 13 11 17 30 7 41 3 50 -14
33z"/>
<path d="M9470 9026 c0 -22 3 -27 11 -19 8 8 8 16 0 30 -9 16 -10 14 -11 -11z"/>
<path d="M7636 8977 c-5 -15 -6 -31 -2 -34 11 -11 18 5 14 34 -4 28 -4 28 -12
0z"/>
<path d="M4832 8970 c0 -14 2 -19 5 -12 2 6 2 18 0 25 -3 6 -5 1 -5 -13z"/>
<path d="M3076 8888 c-7 -21 -3 -47 6 -42 4 3 7 16 6 29 -3 28 -7 32 -12 13z"/>
<path d="M9391 8834 c0 -11 3 -14 6 -6 3 7 2 16 -1 19 -3 4 -6 -2 -5 -13z"/>
<path d="M9361 8744 c0 -11 3 -14 6 -6 3 7 2 16 -1 19 -3 4 -6 -2 -5 -13z"/>
<path d="M9326 8683 c-4 -9 -2 -21 4 -27 7 -7 10 -2 10 17 0 31 -5 34 -14 10z"/>
<path d="M7497 8624 c-4 -4 -7 -14 -7 -23 0 -11 3 -12 11 -4 6 6 10 16 7 23
-2 6 -7 8 -11 4z"/>
<path d="M7455 8540 c-3 -5 -1 -10 4 -10 6 0 11 5 11 10 0 6 -2 10 -4 10 -3 0
-8 -4 -11 -10z"/>
<path d="M9181 8444 c0 -11 3 -14 6 -6 3 7 2 16 -1 19 -3 4 -6 -2 -5 -13z"/>
<path d="M3070 8271 c0 -11 4 -22 9 -25 4 -3 6 6 3 19 -5 30 -12 33 -12 6z"/>
<path d="M5234 8261 c21 -23 26 -26 26 -11 0 5 -10 15 -22 21 -23 12 -23 12
-4 -10z"/>
<path d="M5530 8040 c0 -5 7 -10 15 -10 8 0 15 5 15 10 0 6 -7 10 -15 10 -8 0
-15 -4 -15 -10z"/>
<path d="M6930 8039 c0 -5 5 -7 10 -4 6 3 10 8 10 11 0 2 -4 4 -10 4 -5 0 -10
-5 -10 -11z"/>
<path d="M5758 7923 c7 -3 16 -2 19 1 4 3 -2 6 -13 5 -11 0 -14 -3 -6 -6z"/>
<path d="M5831 7896 c10 -9 79 -14 79 -5 0 5 -19 9 -42 9 -23 0 -39 -2 -37 -4z"/>
<path d="M6613 7893 c9 -2 23 -2 30 0 6 3 -1 5 -18 5 -16 0 -22 -2 -12 -5z"/>
<path d="M5980 7870 c-44 -9 -41 -10 48 -16 48 -4 72 -2 72 5 0 6 -6 11 -14
11 -7 0 -26 2 -42 4 -16 2 -45 1 -64 -4z"/>
<path d="M6418 7873 c-16 -2 -28 -8 -28 -12 0 -9 79 -12 105 -4 20 6 20 6 0
14 -21 8 -34 8 -77 2z"/>
<path d="M8390 7740 c-12 -8 -10 -10 8 -10 13 0 20 4 17 10 -7 12 -6 12 -25 0z"/>
<path d="M8318 7703 c6 -2 18 -2 25 0 6 3 1 5 -13 5 -14 0 -19 -2 -12 -5z"/>
<path d="M8240 7676 c0 -9 30 -14 35 -6 4 6 -3 10 -14 10 -12 0 -21 -2 -21 -4z"/>
<path d="M3077 7347 c-3 -8 -1 -20 4 -28 6 -10 9 -7 9 14 0 29 -5 35 -13 14z"/>
<path d="M6116 7278 c6 -10 142 -9 166 0 9 4 -25 7 -77 7 -51 1 -91 -3 -89 -7z"/>
<path d="M6330 7278 c0 -4 13 -8 29 -8 17 0 32 4 35 8 2 4 -11 8 -30 8 -19 0
-34 -4 -34 -8z"/>
<path d="M5735 7200 c-3 -6 1 -7 9 -4 18 7 21 14 7 14 -6 0 -13 -4 -16 -10z"/>
<path d="M6708 7193 c7 -3 16 -2 19 1 4 3 -2 6 -13 5 -11 0 -14 -3 -6 -6z"/>
<path d="M5640 7170 c-12 -8 -10 -10 8 -10 13 0 20 4 17 10 -7 12 -6 12 -25 0z"/>
<path d="M6788 7163 c6 -2 18 -2 25 0 6 3 1 5 -13 5 -14 0 -19 -2 -12 -5z"/>
<path d="M3078 7120 c-3 -17 -2 -33 2 -35 3 -2 7 12 8 31 3 42 -4 45 -10 4z"/>
<path d="M6880 7140 c0 -13 28 -25 38 -16 3 4 0 11 -8 16 -20 13 -30 12 -30 0z"/>
<path d="M5546 7128 c7 -11 42 -10 49 2 4 6 -5 10 -24 8 -16 -1 -27 -6 -25
-10z"/>
<path d="M7130 6990 c0 -5 7 -10 16 -10 8 0 12 5 9 10 -3 6 -10 10 -16 10 -5
0 -9 -4 -9 -10z"/>
<path d="M8364 6985 c4 -24 16 -30 16 -7 0 12 -4 22 -9 22 -5 0 -8 -7 -7 -15z"/>
<path d="M3075 6951 c-3 -5 -1 -12 5 -16 5 -3 10 1 10 9 0 18 -6 21 -15 7z"/>
<path d="M5240 6950 c0 -5 4 -10 9 -10 6 0 13 5 16 10 3 6 -1 10 -9 10 -9 0
-16 -4 -16 -10z"/>
<path d="M8395 6930 c3 -5 8 -10 11 -10 2 0 4 5 4 10 0 6 -5 10 -11 10 -5 0
-7 -4 -4 -10z"/>
<path d="M7235 6920 c4 -6 11 -8 16 -5 14 9 11 15 -7 15 -8 0 -12 -5 -9 -10z"/>
<path d="M3072 6610 c0 -14 2 -19 5 -12 2 6 2 18 0 25 -3 6 -5 1 -5 -13z"/>
<path d="M8581 6594 c0 -11 3 -14 6 -6 3 7 2 16 -1 19 -3 4 -6 -2 -5 -13z"/>
<path d="M8606 6541 c-4 -5 -2 -12 3 -15 5 -4 12 -2 15 3 4 5 2 12 -3 15 -5 4
-12 2 -15 -3z"/>
<path d="M4830 6519 c0 -5 5 -7 10 -4 6 3 10 8 10 11 0 2 -4 4 -10 4 -5 0 -10
-5 -10 -11z"/>
<path d="M8791 6204 c0 -11 3 -14 6 -6 3 7 2 16 -1 19 -3 4 -6 -2 -5 -13z"/>
<path d="M4646 6194 c-7 -19 2 -37 15 -29 12 8 12 45 0 45 -5 0 -12 -7 -15
-16z"/>
<path d="M3072 6105 c0 -16 2 -22 5 -12 2 9 2 23 0 30 -3 6 -5 -1 -5 -18z"/>
<path d="M4610 6093 c0 -4 5 -15 10 -23 8 -13 10 -13 10 2 0 9 -4 20 -10 23
-5 3 -10 3 -10 -2z"/>
<path d="M7850 6066 c0 -14 5 -26 10 -26 6 0 10 9 10 19 0 11 -4 23 -10 26 -6
4 -10 -5 -10 -19z"/>
<path d="M4580 5978 c0 -13 5 -30 10 -38 7 -11 10 -5 10 23 0 20 -4 37 -10 37
-5 0 -10 -10 -10 -22z"/>
<path d="M3074 5955 c-3 -8 -4 -20 -2 -27 3 -7 7 -1 10 15 6 29 1 36 -8 12z"/>
<path d="M7881 5915 c1 -40 1 -40 11 -12 7 21 7 32 -1 40 -8 8 -11 0 -10 -28z"/>
<path d="M8970 5870 c0 -19 3 -21 12 -12 9 9 9 15 0 24 -9 9 -12 7 -12 -12z"/>
<path d="M3070 5841 c0 -5 5 -13 10 -16 6 -3 10 -2 10 4 0 5 -4 13 -10 16 -5
3 -10 2 -10 -4z"/>
<path d="M8990 5833 c0 -4 5 -15 10 -23 8 -13 10 -13 10 2 0 9 -4 20 -10 23
-5 3 -10 3 -10 -2z"/>
<path d="M10585 5680 c-3 -6 1 -7 9 -4 18 7 21 14 7 14 -6 0 -13 -4 -16 -10z"/>
<path d="M10445 5650 c-4 -6 7 -10 27 -10 25 0 29 3 18 10 -19 13 -37 13 -45
0z"/>
<path d="M11380 5650 c0 -5 12 -10 28 -10 21 0 24 2 12 10 -20 13 -40 13 -40
0z"/>
<path d="M10340 5610 c0 -12 27 -12 55 0 16 7 13 9 -17 9 -21 1 -38 -3 -38 -9z"/>
<path d="M11488 5613 c12 -2 30 -2 40 0 9 3 -1 5 -23 4 -22 0 -30 -2 -17 -4z"/>
<path d="M10260 5580 c0 -5 9 -10 20 -10 11 0 20 5 20 10 0 6 -9 10 -20 10
-11 0 -20 -4 -20 -10z"/>
<path d="M10125 5500 c-3 -5 -1 -10 4 -10 6 0 11 5 11 10 0 6 -2 10 -4 10 -3
0 -8 -4 -11 -10z"/>
<path d="M11786 5472 c-3 -6 -1 -14 5 -17 15 -10 25 3 12 16 -7 7 -13 7 -17 1z"/>
<path d="M10020 5429 c0 -5 5 -7 10 -4 6 3 10 8 10 11 0 2 -4 4 -10 4 -5 0
-10 -5 -10 -11z"/>
<path d="M3075 5329 c-4 -6 -5 -12 -2 -15 2 -3 7 2 10 11 7 17 1 20 -8 4z"/>
<path d="M11970 5321 c0 -5 5 -13 10 -16 6 -3 10 -2 10 4 0 5 -4 13 -10 16 -5
3 -10 2 -10 -4z"/>
<path d="M9290 5301 c0 -6 5 -13 10 -16 6 -3 10 1 10 9 0 9 -4 16 -10 16 -5 0
-10 -4 -10 -9z"/>
<path d="M12035 5250 c3 -5 8 -10 11 -10 2 0 4 5 4 10 0 6 -5 10 -11 10 -5 0
-7 -4 -4 -10z"/>
<path d="M9320 5236 c0 -8 5 -18 10 -21 6 -3 10 3 10 14 0 12 -4 21 -10 21 -5
0 -10 -6 -10 -14z"/>
<path d="M9770 5220 c0 -5 5 -10 10 -10 6 0 10 5 10 10 0 6 -4 10 -10 10 -5 0
-10 -4 -10 -10z"/>
<path d="M9360 5166 c0 -9 5 -16 10 -16 6 0 10 4 10 9 0 6 -4 13 -10 16 -5 3
-10 -1 -10 -9z"/>
<path d="M12180 5071 c0 -12 5 -21 10 -21 6 0 10 6 10 14 0 8 -4 18 -10 21 -5
3 -10 -3 -10 -14z"/>
<path d="M3082 5040 c0 -19 2 -27 5 -17 2 9 2 25 0 35 -3 9 -5 1 -5 -18z"/>
<path d="M12332 4810 c0 -14 2 -19 5 -12 2 6 2 18 0 25 -3 6 -5 1 -5 -13z"/>
<path d="M4500 4791 c0 -6 5 -13 10 -16 6 -3 10 1 10 9 0 9 -4 16 -10 16 -5 0
-10 -4 -10 -9z"/>
<path d="M12356 4731 c-9 -14 2 -51 15 -51 11 0 12 30 0 49 -6 9 -11 10 -15 2z"/>
<path d="M3073 4635 c-3 -9 -3 -18 -1 -21 3 -3 8 4 11 16 6 23 -1 27 -10 5z"/>
<path d="M3075 4480 c3 -5 8 -10 11 -10 2 0 4 5 4 10 0 6 -5 10 -11 10 -5 0
-7 -4 -4 -10z"/>
<path d="M12431 4434 c0 -11 3 -14 6 -6 3 7 2 16 -1 19 -3 4 -6 -2 -5 -13z"/>
<path d="M3112 4320 c0 -19 2 -27 5 -17 2 9 2 25 0 35 -3 9 -5 1 -5 -18z"/>
<path d="M4505 4301 c-3 -5 -1 -12 5 -16 5 -3 10 1 10 9 0 18 -6 21 -15 7z"/>
<path d="M3136 4272 c-3 -6 -1 -14 5 -17 14 -9 20 -2 10 14 -6 8 -11 9 -15 3z"/>
<path d="M3255 4170 c3 -5 18 -10 32 -10 32 0 28 5 -10 14 -19 4 -26 3 -22 -4z"/>
<path d="M4493 4167 c4 -14 26 -16 30 -3 1 5 -6 10 -16 12 -10 1 -16 -3 -14
-9z"/>
<path d="M7960 4170 c0 -5 5 -10 11 -10 5 0 7 5 4 10 -3 6 -8 10 -11 10 -2 0
-4 -4 -4 -10z"/>
<path d="M8703 4163 c15 -2 37 -2 50 0 12 2 0 4 -28 4 -27 0 -38 -2 -22 -4z"/>
<path d="M9408 4163 c6 -2 18 -2 25 0 6 3 1 5 -13 5 -14 0 -19 -2 -12 -5z"/>
<path d="M10368 4163 c12 -2 32 -2 45 0 12 2 2 4 -23 4 -25 0 -35 -2 -22 -4z"/>
<path d="M10688 4163 c7 -3 16 -2 19 1 4 3 -2 6 -13 5 -11 0 -14 -3 -6 -6z"/>
<path d="M10848 4163 c7 -3 16 -2 19 1 4 3 -2 6 -13 5 -11 0 -14 -3 -6 -6z"/>
<path d="M10948 4163 c7 -3 16 -2 19 1 4 3 -2 6 -13 5 -11 0 -14 -3 -6 -6z"/>
<path d="M11053 4163 c9 -2 25 -2 35 0 9 3 1 5 -18 5 -19 0 -27 -2 -17 -5z"/>
<path d="M11188 4163 c7 -3 16 -2 19 1 4 3 -2 6 -13 5 -11 0 -14 -3 -6 -6z"/>
<path d="M10650 8140 c0 -5 5 -10 10 -10 6 0 10 5 10 10 0 6 -4 10 -10 10 -5
0 -10 -4 -10 -10z"/>
<path d="M10460 8080 c-8 -5 -11 -12 -8 -16 10 -9 38 3 38 16 0 12 -10 13 -30
0z"/>
<path d="M11410 8070 c0 -5 4 -10 9 -10 6 0 13 5 16 10 3 6 -1 10 -9 10 -9 0
-16 -4 -16 -10z"/>
<path d="M11460 8042 c0 -4 9 -8 19 -8 11 0 17 4 15 8 -3 4 -12 8 -20 8 -8 0
-14 -4 -14 -8z"/>
<path d="M11610 7929 c0 -5 5 -7 10 -4 6 3 10 8 10 11 0 2 -4 4 -10 4 -5 0
-10 -5 -10 -11z"/>
<path d="M11640 7900 c0 -5 5 -10 11 -10 5 0 7 5 4 10 -3 6 -8 10 -11 10 -2 0
-4 -4 -4 -10z"/>
<path d="M11786 7731 c-3 -5 1 -14 9 -21 12 -10 15 -10 15 3 0 19 -16 31 -24
18z"/>
<path d="M9951 7378 c1 -60 2 -61 10 -23 11 55 11 85 -1 85 -6 0 -10 -27 -9
-62z"/>
<path d="M11930 7191 c0 -83 4 -142 10 -146 11 -7 11 -3 14 125 3 100 -3 160
-15 160 -5 0 -9 -63 -9 -139z"/>
<path d="M9949 7018 c-4 -28 1 -62 9 -70 4 -4 9 12 11 37 1 26 -2 45 -9 45 -5
0 -11 -6 -11 -12z"/>
<path d="M11786 6653 c-6 -14 -5 -15 5 -6 7 7 10 15 7 18 -3 3 -9 -2 -12 -12z"/>
<path d="M11755 6607 c-4 -10 -5 -21 -1 -24 10 -10 18 4 13 24 -4 17 -4 17
-12 0z"/>
<path d="M10130 6565 c0 -8 5 -15 10 -15 6 0 10 7 10 15 0 8 -4 15 -10 15 -5
0 -10 -7 -10 -15z"/>
<path d="M10272 6419 c2 -7 10 -15 17 -17 8 -3 12 1 9 9 -2 7 -10 15 -17 17
-8 3 -12 -1 -9 -9z"/>
<path d="M10312 6391 c4 -13 18 -16 19 -4 0 4 -5 9 -11 12 -7 2 -11 -2 -8 -8z"/>
<path d="M11538 6383 c7 -3 16 -2 19 1 4 3 -2 6 -13 5 -11 0 -14 -3 -6 -6z"/>
<path d="M10580 6240 c0 -5 14 -10 31 -10 17 0 28 4 24 10 -3 6 -17 10 -31 10
-13 0 -24 -4 -24 -10z"/>
<path d="M11235 6240 c-4 -6 7 -10 24 -10 17 0 31 5 31 10 0 6 -11 10 -24 10
-14 0 -28 -4 -31 -10z"/>
<path d="M10710 6209 c0 -5 10 -9 23 -10 12 0 46 -2 76 -4 29 -2 50 0 45 4
-13 12 -144 21 -144 10z"/>
<path d="M11139 6215 c-3 -2 -37 -5 -77 -6 -98 -3 -101 -16 -4 -18 73 -1 116
9 94 22 -5 4 -11 5 -13 2z"/>
</g>
</svg>
